<svg
    role="img"
    viewBox="0 0 401 100"
    xmlns="http://www.w3.org/2000/svg"
    fill="#181818"
>
    <title>Bitgreen Logo</title>
    <path d="M60.6852 15.7211C60.6852 7.36757 53.9055 0.648438 45.6125 0.648438H0.757812V76.0116H45.6125C53.966 76.0116 60.6852 69.232 60.6852 60.939C60.6852 56.6412 58.8087 52.5249 55.6004 49.6194C58.8087 46.7743 60.6852 42.6581 60.6852 38.2998C60.6852 34.0019 58.8087 29.8857 55.6004 27.0407C58.8692 24.1351 60.6852 20.0794 60.6852 15.7211ZM10.1404 8.21502H43.3123C47.4285 8.09396 50.8789 11.3627 50.9999 15.4789C51.121 19.5952 47.8522 23.0455 43.736 23.1666C43.615 23.1666 43.4334 23.1666 43.3123 23.1666H10.1404V8.21502ZM10.1404 30.7937H43.3123C47.4285 30.6727 50.8789 33.9414 50.9999 38.0576C51.121 42.1739 47.8522 45.6242 43.736 45.7453C43.615 45.7453 43.4334 45.7453 43.3123 45.7453H10.1404V30.7937ZM43.3123 68.3845H10.1404V53.4329H43.3123C47.4285 53.4329 50.8183 56.7622 50.8183 60.939C50.8183 65.0552 47.4891 68.3845 43.3123 68.3845Z" />
    <path d="M174.85 19.353H183.93V76.1327C183.93 91.2053 176.545 99.922 155.964 99.922C139.075 99.922 129.995 92.537 129.027 79.6436H137.985C138.651 87.1496 143.433 92.7792 156.024 92.7792C169.402 92.7792 174.971 88.1182 174.971 76.0116V63.784C171.097 71.169 164.075 74.801 153.906 74.801C136.109 74.801 127.755 63.7235 127.755 46.2295C127.755 28.9172 136.169 17.7792 153.906 17.7792C164.196 17.7792 171.157 21.8349 174.971 29.0988L174.85 19.353ZM174.85 46.169C174.85 30.8542 167.949 24.8615 155.903 24.8615C143.01 24.8615 136.896 30.9148 136.896 46.169C136.896 61.4232 143.01 67.5976 155.903 67.5976C167.949 67.5976 174.85 61.6048 174.85 46.169Z" />
    <path d="M225.274 18.566V27.5249H222.913C206.145 26.9801 202.513 39.2077 202.513 55.1883V76.0116H193.434V19.353H202.513V34.6677C205.903 24.6798 212.501 18.566 223.276 18.566H225.274Z" />
    <path d="M272.065 58.5176H280.358C279.208 67.1132 272.671 77.767 253.845 77.767C234.353 77.767 225.758 64.6314 225.758 47.5007C225.758 30.612 235.08 17.4764 253.845 17.4764C270.855 17.4764 280.479 29.1592 280.479 45.6847C280.54 47.0164 280.419 48.3481 280.237 49.6798H234.656C235.322 65.1762 242.828 70.8663 254.148 70.8663C265.286 70.8663 270.37 65.6605 272.065 58.5176ZM234.898 42.9002H271.581C271.157 29.8856 264.438 24.4377 253.906 24.4377C243.191 24.4377 236.169 29.5224 234.898 42.9002Z" />
    <path d="M333.082 58.5176H341.375C340.225 67.1132 333.688 77.767 314.862 77.767C295.371 77.767 286.775 64.6314 286.775 47.5007C286.775 30.612 296.097 17.4764 314.862 17.4764C331.872 17.4764 341.496 29.1592 341.496 45.6847C341.557 47.0164 341.436 48.3481 341.254 49.6798H295.734C296.4 65.1762 303.906 70.8663 315.225 70.8663C326.303 70.8663 331.387 65.6605 333.082 58.5176ZM295.976 42.9002H332.659C332.235 29.8856 325.516 24.4377 314.983 24.4377C304.208 24.4377 297.187 29.5224 295.976 42.9002Z" />
    <path d="M400.758 39.8735V76.0116H391.678V40.9026C391.678 28.7961 386.351 25.1641 378.058 25.1641C365.468 25.1641 358.809 34.9099 358.809 54.4014V76.0116H349.729V19.353H358.809V34.3045C362.441 23.4087 369.463 17.537 380.54 17.537C394.765 17.537 400.758 25.2246 400.758 39.8735Z" />
    <path d="M70.8545 10.4547V1.07214H80.116V10.3942H70.8545V10.4547ZM70.8545 76.0116V19.7162H80.116V76.0116H70.8545Z" />
    <path d="M110.382 76.0116C99.3049 76.0116 96.3993 71.8349 96.3993 62.8155V26.738H85.4429V19.6557H97.4283L97.6099 1.07214H105.6V19.6557H124.668V26.738H105.6V68.6266H123.942V75.9511L110.382 76.0116Z" />
</svg>